# xmcd
#
# Track frame offsets:
#	150
#	29241
#	53358
#	79421
#	100292
#	120245
#	139663
#	160701
#	182352
#	205991
#	230695
#
# Disc length: 3277 seconds
#
# Revision: 1
# Processed by: cddbd v1.5.1PL2 Copyright (c) Steve Scherf et al.
# Submitted via: audiograbber 1.83.01
#
DISCID=8b0ccb0b
DTITLE=Enterprise Blues Band - Live at Galileo7 2005
DYEAR=2005
DGENRE=Space Music Blues
TTITLE0=Enterprise Blues
TTITLE1=The Trekkie Deckie
TTITLE2=Let's talk dirty in Hawaian
TTITLE3=The Red Shirt Boggie Blues
TTITLE4=Consomee
TTITLE5=You Don't know me
TTITLE6=The Star Trek Woman Jones
TTITLE7=Enterprisin' On
TTITLE8=Traveling through Space
TTITLE9=Get Me to the Holodeck
TTITLE10=Find the Cost of Freedom
EXTD=Promo
EXTT0=
EXTT1=
EXTT2=
EXTT3=
EXTT4=
EXTT5=
EXTT6=
EXTT7=
EXTT8=
EXTT9=
EXTT10=
PLAYORDER=
